<?xml version="1.0" encoding="UTF-8"?>
<svg xmlns="http://www.w3.org/2000/svg" version="1.1" viewBox="0 0 512 512">
  <defs>
    <style>
      .cls-1 {
        fill: #161c33;
      }
    </style>
  </defs>
  <!-- Generator: Adobe Illustrator 28.7.3, SVG Export Plug-In . SVG Version: 1.2.0 Build 164)  -->
  <g>
    <g id="Layer_1">
      <path class="cls-1" d="M421.05,30.88H94.04c-.57,0-1.15.57-1.72.57s-.57.57-1.15.57c-1.15,0-1.72.57-2.3,1.15h-.57c-1.72,1.15-3.45,2.3-4.6,4.02h0c-1.15,1.15-1.72,2.3-2.3,3.45,0,0,0,.57-.57.57,0,.57-.57,1.72-.57,2.87v.57c-.57,1.15-1.15,2.87-1.15,4.02h0v414.37c0,9.77,8.05,17.82,17.82,17.82h324.14c1.15,0,2.3,0,3.45-.57.57,0,1.15-.57,1.72-.57s.57,0,1.15-.57c.57-.57,1.72-.57,2.3-1.15h.57c1.72-1.15,3.45-2.3,5.17-4.02h0c.57-1.15,1.15-1.72,1.72-2.87,0,0,0-.57.57-.57.57-1.15.57-1.72,1.15-2.87q0-.57.57-1.15c0-1.15.57-2.3.57-4.02h0V48.7c-1.15-9.77-9.2-17.82-18.97-17.82ZM173.92,289.5c48.28-18.39,70.69-50.57,81.03-76.44v141.95c-22.99,10.34-50,18.39-81.03,23.56,0,0,0-89.08,0-89.08ZM88.29,214.79c44.83-3.45,66.67-35.06,76.44-63.79v132.18c-21.84,7.47-47.7,11.49-76.44,12.64,0,0,0-81.03,0-81.03ZM88.29,305.02c28.74-.57,54.02-4.6,76.44-12.07v87.36c-23.56,3.45-48.85,5.17-76.44,5.75,0,0,0-81.03,0-81.03ZM97.48,471.69c-5.17,0-9.2-4.02-9.2-9.2v-67.82c27.01-.57,52.87-2.3,76.44-5.75v82.18h-67.24v.57ZM173.92,471.69v-83.91c30.46-5.17,57.47-12.64,81.03-22.99v106.32h-81.03v.57ZM263.58,471.69v-110.92c48.28-23.56,70.69-54.02,81.03-78.16v188.51h-81.03v.57Z"/>
    </g>
  </g>
</svg>
