<?xml version="1.0" encoding="UTF-8"?>
<svg xmlns="http://www.w3.org/2000/svg" baseProfile="tiny" version="1.2" viewBox="0 0 209 44">
  <!-- Generator: Adobe Illustrator 28.6.0, SVG Export Plug-In . SVG Version: 1.2.0 Build 709)  -->
  <g>
    <g id="Warstwa_1">
      <g>
        <g>
          <path d="M55.139,18.417c.07-.209.212-.353.459-.353h3.248c.246,0,.388.144.459.353l8.117,23.296c.071.211,0,.353-.246.353h-3.46c-.247,0-.388-.106-.459-.353l-1.589-4.659h-9.034l-1.589,4.659c-.071.247-.212.353-.459.353h-3.423c-.247,0-.318-.142-.247-.353l8.223-23.296ZM60.398,33.349l-3.176-9.318h-.106l-3.211,9.318h6.494Z" fill="#081834"/>
          <path d="M79.666,18.417c0-.209.142-.353.353-.353h3.248c.281,0,.459.107.6.353l9.777,16.553h.141v-16.553c0-.209.141-.353.353-.353h3.07c.212,0,.353.144.353.353v23.296c0,.211-.141.353-.353.353h-3.211c-.282,0-.459-.106-.601-.353l-9.811-16.518h-.142v16.518c0,.211-.14.353-.353.353h-3.07c-.211,0-.353-.142-.353-.353v-23.296Z" fill="#081834"/>
          <path d="M111.817,18.417c0-.209.141-.353.354-.353h15.035c.213,0,.353.144.353.353v3.036c0,.211-.14.353-.353.353h-11.013c-.141,0-.212.069-.212.212v5.86c0,.14.071.211.212.211h9.283c.211,0,.352.14.352.353v3.036c0,.211-.141.353-.352.353h-9.283c-.141,0-.212.069-.212.213v6.069c0,.14.071.211.212.211h11.013c.213,0,.353.14.353.355v3.034c0,.211-.14.353-.353.353h-15.035c-.213,0-.354-.142-.354-.353v-23.296Z" fill="#081834"/>
          <path d="M140.192,30.068c0-3.778.139-5.12.634-6.603,1.237-3.812,4.342-5.788,8.578-5.788,4.481,0,7.375,2.401,8.364,5.084.072.176.035.388-.141.493l-2.967,1.305c-.209.071-.388-.033-.458-.175-1.057-1.907-2.505-2.966-4.836-2.966-2.436,0-3.846,1.202-4.518,3.14-.281.883-.422,2.084-.422,5.509,0,3.387.141,4.621.422,5.504.672,1.942,2.082,3.143,4.518,3.143,2.119,0,3.917-1.061,4.554-3.001.247-.743.388-1.729.388-3.107,0-.14-.069-.211-.211-.211h-3.953c-.211,0-.352-.14-.352-.351v-2.826c0-.209.141-.351.352-.351h7.94c.213,0,.354.142.354.351v2.084c0,1.976-.177,4.059-.565,5.258-1.165,3.744-4.341,5.897-8.469,5.897-4.236,0-7.342-1.976-8.578-5.791-.495-1.481-.634-2.821-.634-6.597Z" fill="#081834"/>
          <path d="M171.989,18.417c0-.209.142-.353.354-.353h3.459c.212,0,.352.144.352.353v23.296c0,.211-.14.353-.352.353h-3.459c-.212,0-.354-.142-.354-.353v-23.296Z" fill="#081834"/>
          <path d="M189.141,39.279c-.141-.142-.213-.355-.07-.531l2.188-2.539c.143-.176.352-.176.495-.036,1.552,1.236,3.847,2.542,6.528,2.542,2.858,0,4.518-1.449,4.518-3.46,0-1.729-1.059-2.859-4.376-3.318l-1.269-.176c-4.625-.635-7.236-2.859-7.236-6.847,0-4.342,3.176-7.237,8.118-7.237,3,0,5.858.955,7.763,2.401.177.14.213.282.072.495l-1.694,2.613c-.141.175-.318.211-.495.105-1.941-1.272-3.741-1.872-5.753-1.872-2.434,0-3.776,1.342-3.776,3.211,0,1.66,1.167,2.788,4.412,3.249l1.272.176c4.622.635,7.163,2.823,7.163,6.952,0,4.271-3.07,7.449-9.036,7.449-3.528,0-6.952-1.414-8.823-3.178Z" fill="#081834"/>
        </g>
        <path d="M33.162,1.5H3.639c-.102,0-.202.011-.3.03-.053.01-.102.027-.153.042-.038.012-.076.022-.115.036-.069.026-.135.059-.198.093-.013.006-.025.014-.036.02-.176.1-.33.231-.459.387-.005.006-.009.012-.015.017-.066.082-.122.169-.171.263-.009.016-.019.034-.027.051-.042.085-.073.174-.098.266-.007.025-.018.05-.024.075-.026.116-.043.236-.043.359v37.724c0,.899.738,1.638,1.639,1.638h29.523c.103,0,.203-.011.3-.031.055-.011.106-.027.158-.044.036-.011.073-.02.108-.033.07-.027.137-.06.203-.095.011-.007.022-.013.033-.018.176-.1.329-.231.458-.386.005-.007.011-.015.017-.02.064-.08.119-.167.167-.258.01-.02.022-.036.031-.056.039-.084.069-.169.095-.258.009-.027.02-.055.026-.084.025-.111.041-.227.041-.346,0-.004.002-.007.002-.009V3.138c0-.9-.739-1.638-1.64-1.638ZM10.611,25.099c4.387-1.691,6.432-4.614,7.378-6.948v12.924c-2.104.963-4.584,1.683-7.378,2.151v-8.128ZM2.82,18.275c4.111-.339,6.054-3.21,6.97-5.823v12.066c-2.004.697-4.35,1.074-6.97,1.141v-7.384ZM2.82,26.483c2.596-.064,4.945-.417,6.97-1.085v7.964c-2.138.313-4.479.482-6.97.513v-7.393ZM3.639,41.679c-.451,0-.819-.366-.819-.817v-6.166c2.483-.029,4.828-.193,6.97-.499v7.482H3.639ZM10.611,41.679v-7.616c2.768-.453,5.251-1.147,7.378-2.078v9.695h-7.378ZM18.809,41.679v-10.077c4.39-2.14,6.435-4.95,7.382-7.114v17.191h-7.382Z" fill="#081834"/>
      </g>
    </g>
  </g>
</svg>